<svg width="135" height="40" viewBox="0 0 135 40" fill="none" xmlns="http://www.w3.org/2000/svg">
<path d="M130 0.000244141H5C2.23858 0.000244141 0 2.23882 0 5.00024V35.0002C0 37.7617 2.23858 40.0002 5 40.0002H130C132.761 40.0002 135 37.7617 135 35.0002V5.00024C135 2.23882 132.761 0.000244141 130 0.000244141Z" fill="black"/>
<path d="M130 0.800244C131.114 0.800244 132.182 1.24274 132.97 2.0304C133.758 2.81805 134.2 3.88633 134.2 5.00024V35.0002C134.2 36.1142 133.758 37.1824 132.97 37.9701C132.182 38.7577 131.114 39.2002 130 39.2002H5C3.88609 39.2002 2.8178 38.7577 2.03015 37.9701C1.2425 37.1824 0.8 36.1142 0.8 35.0002V5.00024C0.8 3.88633 1.2425 2.81805 2.03015 2.0304C2.8178 1.24274 3.88609 0.800244 5 0.800244H130ZM130 0.000244141H5C3.67392 0.000244141 2.40215 0.527028 1.46447 1.46471C0.526784 2.40239 0 3.67416 0 5.00024V35.0002C0 36.3263 0.526784 37.5981 1.46447 38.5358C2.40215 39.4735 3.67392 40.0002 5 40.0002H130C131.326 40.0002 132.598 39.4735 133.536 38.5358C134.473 37.5981 135 36.3263 135 35.0002V5.00024C135 3.67416 134.473 2.40239 133.536 1.46471C132.598 0.527028 131.326 0.000244141 130 0.000244141Z" fill="#A6A6A6"/>
<path d="M44.3757 10.486H46.4666V13.3871C46.1529 13.4935 45.8297 13.5726 45.4969 13.6245C45.1668 13.6763 44.7972 13.7022 44.388 13.7022C43.7661 13.7022 43.2409 13.5781 42.8127 13.3298C42.3871 13.0816 42.0639 12.7283 41.8429 12.2701C41.622 11.8091 41.5115 11.2621 41.5115 10.6293C41.5115 10.01 41.6329 9.46992 41.8756 9.00891C42.1212 8.5479 42.4744 8.19055 42.9354 7.93686C43.3992 7.68044 43.9556 7.55223 44.6049 7.55223C44.9377 7.55223 45.2527 7.5836 45.5501 7.64634C45.8501 7.70635 46.1284 7.79228 46.3848 7.90412L46.1188 8.50971C45.8979 8.41423 45.6537 8.3324 45.3864 8.2642C45.1218 8.196 44.8477 8.1619 44.564 8.1619C44.0757 8.1619 43.6569 8.26284 43.3078 8.4647C42.9613 8.66656 42.6954 8.95162 42.5099 9.31988C42.3271 9.68814 42.2357 10.1246 42.2357 10.6293C42.2357 11.1285 42.3162 11.5636 42.4771 11.9345C42.6381 12.3028 42.889 12.5892 43.23 12.7938C43.571 12.9984 44.0102 13.1007 44.5476 13.1007C44.8176 13.1007 45.0495 13.0857 45.2432 13.0557C45.4369 13.023 45.6128 12.9848 45.771 12.9411V11.108H44.3757V10.486ZM51.2459 13.6204H47.9151V7.63815H51.2459V8.25192H48.6107V10.1873H51.0945V10.7929H48.6107V13.0066H51.2459V13.6204ZM54.4088 13.6204H53.7091V8.25192H51.8269V7.63815H56.2829V8.25192H54.4088V13.6204ZM59.364 13.6204V7.63815H60.0596V13.6204H59.364ZM63.5417 13.6204H62.842V8.25192H60.9598V7.63815H65.4158V8.25192H63.5417V13.6204ZM73.6853 10.6211C73.6853 11.0821 73.6266 11.5022 73.5093 11.8813C73.392 12.2578 73.2174 12.5824 72.9856 12.8552C72.7564 13.1253 72.4714 13.3339 72.1304 13.4812C71.7894 13.6285 71.3939 13.7022 70.9438 13.7022C70.48 13.7022 70.0749 13.6285 69.7285 13.4812C69.3848 13.3339 69.0984 13.1239 68.8692 12.8511C68.6428 12.5783 68.4723 12.2523 68.3578 11.8732C68.2459 11.494 68.19 11.0739 68.19 10.6129C68.19 10.0018 68.2909 9.46582 68.4928 9.00481C68.6946 8.54381 69.0002 8.18509 69.4093 7.92867C69.8213 7.67225 70.3368 7.54404 70.956 7.54404C71.548 7.54404 72.0458 7.67089 72.4496 7.92458C72.856 8.17827 73.1629 8.53562 73.3702 8.99663C73.5803 9.45491 73.6853 9.99639 73.6853 10.6211ZM68.9224 10.6211C68.9224 11.1285 68.9947 11.5676 69.1393 11.9386C69.2839 12.3096 69.5048 12.596 69.8022 12.7979C70.1022 12.9998 70.4828 13.1007 70.9438 13.1007C71.4075 13.1007 71.7867 12.9998 72.0813 12.7979C72.3786 12.596 72.5982 12.3096 72.7401 11.9386C72.8819 11.5676 72.9528 11.1285 72.9528 10.6211C72.9528 9.84909 72.7905 9.24623 72.4659 8.8125C72.144 8.37604 71.6407 8.15781 70.956 8.15781C70.4923 8.15781 70.1104 8.25738 69.8103 8.45651C69.5103 8.65565 69.2866 8.93935 69.1393 9.30761C68.9947 9.67314 68.9224 10.111 68.9224 10.6211ZM79.6961 13.6204H78.8941L75.633 8.59563H75.6002C75.6084 8.7293 75.618 8.88206 75.6289 9.05392C75.6398 9.22304 75.648 9.40445 75.6534 9.59812C75.6616 9.78908 75.6657 9.98412 75.6657 10.1833V13.6204H75.0192V7.63815H75.8171L79.066 12.6465H79.0946C79.0892 12.551 79.0824 12.416 79.0742 12.2414C79.066 12.0641 79.0578 11.8745 79.0496 11.6727C79.0442 11.4681 79.0414 11.2785 79.0414 11.1039V7.63815H79.6961V13.6204Z" fill="white"/>
<path d="M44.3757 10.486V10.386H44.2757V10.486H44.3757ZM46.4666 10.486H46.5666V10.386H46.4666V10.486ZM46.4666 13.3871L46.4988 13.4818L46.5666 13.4588V13.3871H46.4666ZM45.4969 13.6245L45.4815 13.5256L45.4814 13.5257L45.4969 13.6245ZM42.8127 13.3298L42.7623 13.4162L42.7625 13.4164L42.8127 13.3298ZM41.8429 12.2701L41.7527 12.3133L41.7528 12.3135L41.8429 12.2701ZM41.8756 9.00891L41.7874 8.9619L41.7872 8.96231L41.8756 9.00891ZM42.9354 7.93686L42.9836 8.02447L42.9838 8.02437L42.9354 7.93686ZM45.5501 7.64634L45.5294 7.74419L45.5305 7.7444L45.5501 7.64634ZM46.3848 7.90412L46.4764 7.94433L46.5167 7.85254L46.4248 7.81246L46.3848 7.90412ZM46.1188 8.50971L46.0792 8.6015L46.1704 8.64093L46.2104 8.54992L46.1188 8.50971ZM45.3864 8.2642L45.3614 8.36103L45.3617 8.3611L45.3864 8.2642ZM43.3078 8.4647L43.2577 8.37812L43.2574 8.37829L43.3078 8.4647ZM42.5099 9.31988L42.4206 9.2749L42.4203 9.27543L42.5099 9.31988ZM42.4771 11.9345L42.3854 11.9743L42.3855 11.9746L42.4771 11.9345ZM43.23 12.7938L43.1786 12.8796L43.23 12.7938ZM45.2432 13.0557L45.2585 13.1545L45.2599 13.1543L45.2432 13.0557ZM45.771 12.9411L45.7976 13.0375L45.871 13.0173V12.9411H45.771ZM45.771 11.108H45.871V11.008H45.771V11.108ZM44.3757 11.108H44.2757V11.208H44.3757V11.108ZM44.3757 10.586H46.4666V10.386H44.3757V10.586ZM46.3666 10.486V13.3871H46.5666V10.486H46.3666ZM46.4345 13.2924C46.1264 13.3969 45.8087 13.4747 45.4815 13.5256L45.5123 13.7233C45.8507 13.6706 46.1795 13.5901 46.4988 13.4818L46.4345 13.2924ZM45.4814 13.5257C45.1574 13.5765 44.7931 13.6022 44.388 13.6022V13.8022C44.8013 13.8022 45.1762 13.776 45.5124 13.7232L45.4814 13.5257ZM44.388 13.6022C43.7792 13.6022 43.2724 13.4807 42.8628 13.2433L42.7625 13.4164C43.2095 13.6754 43.7529 13.8022 44.388 13.8022V13.6022ZM42.8631 13.2435C42.4553 13.0056 42.1456 12.6676 41.933 12.2266L41.7528 12.3135C41.9821 12.7891 42.3189 13.1576 42.7623 13.4162L42.8631 13.2435ZM41.9331 12.2268C41.7199 11.7821 41.6115 11.2506 41.6115 10.6293H41.4115C41.4115 11.2736 41.524 11.836 41.7527 12.3133L41.9331 12.2268ZM41.6115 10.6293C41.6115 10.0232 41.7302 9.49967 41.9641 9.0555L41.7872 8.96231C41.5355 9.44016 41.4115 9.99684 41.4115 10.6293H41.6115ZM41.9639 9.05591C42.2002 8.61217 42.5395 8.26887 42.9836 8.02447L42.8872 7.84924C42.4093 8.11222 42.0421 8.48362 41.7874 8.9619L41.9639 9.05591ZM42.9838 8.02437C43.4297 7.77779 43.9688 7.65223 44.6049 7.65223V7.45223C43.9425 7.45223 43.3686 7.58308 42.887 7.84934L42.9838 8.02437ZM44.6049 7.65223C44.9314 7.65223 45.2395 7.683 45.5294 7.74418L45.5707 7.54849C45.266 7.48419 44.944 7.45223 44.6049 7.45223V7.65223ZM45.5305 7.7444C45.8242 7.80314 46.0955 7.88704 46.3448 7.99578L46.4248 7.81246C46.1612 7.69751 45.8761 7.60956 45.5697 7.54828L45.5305 7.7444ZM46.2932 7.86391L46.0273 8.4695L46.2104 8.54992L46.4764 7.94433L46.2932 7.86391ZM46.1585 8.41791C45.9321 8.32007 45.6828 8.23662 45.4111 8.1673L45.3617 8.3611C45.6246 8.42817 45.8637 8.5084 46.0792 8.6015L46.1585 8.41791ZM45.4114 8.16736C45.1383 8.09699 44.8557 8.0619 44.564 8.0619V8.2619C44.8396 8.2619 45.1053 8.29502 45.3614 8.36103L45.4114 8.16736ZM44.564 8.0619C44.0618 8.0619 43.625 8.16578 43.2577 8.37812L43.3578 8.55127C43.6889 8.35989 44.0895 8.2619 44.564 8.2619V8.0619ZM43.2574 8.37829C42.8938 8.59019 42.6145 8.88987 42.4206 9.2749L42.5992 9.36487C42.7762 9.01337 43.0289 8.74293 43.3581 8.5511L43.2574 8.37829ZM42.4203 9.27543C42.2293 9.66029 42.1357 10.1126 42.1357 10.6293H42.3357C42.3357 10.1366 42.4249 9.716 42.5994 9.36434L42.4203 9.27543ZM42.1357 10.6293C42.1357 11.139 42.2179 11.5882 42.3854 11.9743L42.5689 11.8947C42.4145 11.5389 42.3357 11.1179 42.3357 10.6293H42.1357ZM42.3855 11.9746C42.5547 12.3617 42.8196 12.6642 43.1786 12.8796L43.2815 12.7081C42.9585 12.5143 42.7215 12.2439 42.5688 11.8945L42.3855 11.9746ZM43.1786 12.8796C43.5396 13.0962 43.9982 13.2007 44.5476 13.2007V13.0007C44.0222 13.0007 43.6024 12.9006 43.2815 12.7081L43.1786 12.8796ZM44.5476 13.2007C44.821 13.2007 45.0583 13.1855 45.2585 13.1545L45.2279 12.9569C45.0408 12.9859 44.8143 13.0007 44.5476 13.0007V13.2007ZM45.2599 13.1543C45.4563 13.1211 45.6356 13.0822 45.7976 13.0375L45.7444 12.8447C45.5901 12.8873 45.4175 12.9248 45.2265 12.9571L45.2599 13.1543ZM45.871 12.9411V11.108H45.671V12.9411H45.871ZM45.771 11.008H44.3757V11.208H45.771V11.008ZM44.4757 11.108V10.486H44.2757V11.108H44.4757ZM51.2459 13.6204V13.7204H51.3459V13.6204H51.2459ZM47.9151 13.6204H47.8151V13.7204H47.9151V13.6204ZM47.9151 7.63815V7.53815H47.8151V7.63815H47.9151ZM51.2459 7.63815H51.3459V7.53815H51.2459V7.63815ZM51.2459 8.25192V8.35192H51.3459V8.25192H51.2459ZM48.6107 8.25192V8.15192H48.5107V8.25192H48.6107ZM48.6107 10.1873H48.5107V10.2873H48.6107V10.1873ZM51.0945 10.1873H51.1945V10.0873H51.0945V10.1873ZM51.0945 10.7929V10.8929H51.1945V10.7929H51.0945ZM48.6107 10.7929V10.6929H48.5107V10.7929H48.6107ZM48.6107 13.0066H48.5107V13.1066H48.6107V13.0066ZM51.2459 13.0066H51.3459V12.9066H51.2459V13.0066ZM51.2459 13.5204H47.9151V13.7204H51.2459V13.5204ZM48.0151 13.6204V7.63815H47.8151V13.6204H48.0151ZM47.9151 7.73815H51.2459V7.53815H47.9151V7.73815ZM51.1459 7.63815V8.25192H51.3459V7.63815H51.1459ZM51.2459 8.15192H48.6107V8.35192H51.2459V8.15192ZM48.5107 8.25192V10.1873H48.7107V8.25192H48.5107ZM48.6107 10.2873H51.0945V10.0873H48.6107V10.2873ZM50.9945 10.1873V10.7929H51.1945V10.1873H50.9945ZM51.0945 10.6929H48.6107V10.8929H51.0945V10.6929ZM48.5107 10.7929V13.0066H48.7107V10.7929H48.5107ZM48.6107 13.1066H51.2459V12.9066H48.6107V13.1066ZM51.1459 13.0066V13.6204H51.3459V13.0066H51.1459ZM54.4088 13.6204V13.7204H54.5088V13.6204H54.4088ZM53.7091 13.6204H53.6091V13.7204H53.7091V13.6204ZM53.7091 8.25192H53.8091V8.15192H53.7091V8.25192ZM51.8269 8.25192H51.7269V8.35192H51.8269V8.25192ZM51.8269 7.63815V7.53815H51.7269V7.63815H51.8269ZM56.2829 7.63815H56.3829V7.53815H56.2829V7.63815ZM56.2829 8.25192V8.35192H56.3829V8.25192H56.2829ZM54.4088 8.25192V8.15192H54.3088V8.25192H54.4088ZM54.4088 13.5204H53.7091V13.7204H54.4088V13.5204ZM53.8091 13.6204V8.25192H53.6091V13.6204H53.8091ZM53.7091 8.15192H51.8269V8.35192H53.7091V8.15192ZM51.9269 8.25192V7.63815H51.7269V8.25192H51.9269ZM51.8269 7.73815H56.2829V7.53815H51.8269V7.73815ZM56.1829 7.63815V8.25192H56.3829V7.63815H56.1829ZM56.2829 8.15192H54.4088V8.35192H56.2829V8.15192ZM54.3088 8.25192V13.6204H54.5088V8.25192H54.3088ZM59.364 13.6204H59.264V13.7204H59.364V13.6204ZM59.364 7.63815V7.53815H59.264V7.63815H59.364ZM60.0596 7.63815H60.1596V7.53815H60.0596V7.63815ZM60.0596 13.6204V13.7204H60.1596V13.6204H60.0596ZM59.464 13.6204V7.63815H59.264V13.6204H59.464ZM59.364 7.73815H60.0596V7.53815H59.364V7.73815ZM59.9596 7.63815V13.6204H60.1596V7.63815H59.9596ZM60.0596 13.5204H59.364V13.7204H60.0596V13.5204ZM63.5417 13.6204V13.7204H63.6417V13.6204H63.5417ZM62.842 13.6204H62.742V13.7204H62.842V13.6204ZM62.842 8.25192H62.942V8.15192H62.842V8.25192ZM60.9598 8.25192H60.8598V8.35192H60.9598V8.25192ZM60.9598 7.63815V7.53815H60.8598V7.63815H60.9598ZM65.4158 7.63815H65.5158V7.53815H65.4158V7.63815ZM65.4158 8.25192V8.35192H65.5158V8.25192H65.4158ZM63.5417 8.25192V8.15192H63.4417V8.25192H63.5417ZM63.5417 13.5204H62.842V13.7204H63.5417V13.5204ZM62.942 13.6204V8.25192H62.742V13.6204H62.942ZM62.842 8.15192H60.9598V8.35192H62.842V8.15192ZM61.0598 8.25192V7.63815H60.8598V8.25192H61.0598ZM60.9598 7.73815H65.4158V7.53815H60.9598V7.73815ZM65.3158 7.63815V8.25192H65.5158V7.63815H65.3158ZM65.4158 8.15192H63.5417V8.35192H65.4158V8.15192ZM63.4417 8.25192V13.6204H63.6417V8.25192H63.4417ZM73.5093 11.8813L73.6048 11.9111L73.6049 11.9109L73.5093 11.8813ZM72.9856 12.8552L72.9094 12.7904L72.9093 12.7905L72.9856 12.8552ZM72.1304 13.4812L72.17 13.573L72.1304 13.4812ZM69.7285 13.4812L69.6891 13.5732L69.6894 13.5733L69.7285 13.4812ZM68.8692 12.8511L68.7923 12.915L68.7927 12.9154L68.8692 12.8511ZM68.3578 11.8732L68.2618 11.9015L68.262 11.9021L68.3578 11.8732ZM69.4093 7.92867L69.3565 7.84378L69.3562 7.84394L69.4093 7.92867ZM72.4496 7.92458L72.3963 8.00925L72.3966 8.00941L72.4496 7.92458ZM73.3702 8.99663L73.279 9.03765L73.2793 9.0383L73.3702 8.99663ZM69.8022 12.7979L69.746 12.8806L69.7463 12.8809L69.8022 12.7979ZM72.0813 12.7979L72.0251 12.7152L72.0248 12.7154L72.0813 12.7979ZM72.4659 8.8125L72.3854 8.87186L72.3859 8.87242L72.4659 8.8125ZM69.8103 8.45651L69.755 8.37319L69.8103 8.45651ZM69.1393 9.30761L69.0464 9.27047L69.0463 9.27083L69.1393 9.30761ZM73.5853 10.6211C73.5853 11.0736 73.5277 11.4836 73.4138 11.8518L73.6049 11.9109C73.7256 11.5208 73.7853 11.0905 73.7853 10.6211H73.5853ZM73.4139 11.8516C73.3002 12.2165 73.1317 12.5289 72.9094 12.7904L73.0618 12.92C73.3032 12.6359 73.4839 12.2991 73.6048 11.9111L73.4139 11.8516ZM72.9093 12.7905C72.6906 13.0483 72.4183 13.2479 72.0907 13.3894L72.17 13.573C72.5244 13.4199 72.8222 13.2023 73.0618 12.9199L72.9093 12.7905ZM72.0907 13.3894C71.7646 13.5303 71.3831 13.6022 70.9438 13.6022V13.8022C71.4047 13.8022 71.8142 13.7268 72.17 13.573L72.0907 13.3894ZM70.9438 13.6022C70.4904 13.6022 70.0992 13.5302 69.7676 13.3892L69.6894 13.5733C70.0507 13.7269 70.4696 13.8022 70.9438 13.8022V13.6022ZM69.7679 13.3893C69.4378 13.2479 69.1644 13.047 68.9458 12.7868L68.7927 12.9154C69.0324 13.2008 69.3318 13.42 69.6891 13.5732L69.7679 13.3893ZM68.9462 12.7872C68.7292 12.5259 68.5646 12.2121 68.4535 11.8442L68.262 11.9021C68.38 12.2925 68.5564 12.6308 68.7923 12.915L68.9462 12.7872ZM68.4537 11.8449C68.3449 11.4763 68.29 11.0659 68.29 10.6129H68.09C68.09 11.0819 68.1469 11.5117 68.2618 11.9015L68.4537 11.8449ZM68.29 10.6129C68.29 10.0128 68.3891 9.49088 68.5844 9.04492L68.4012 8.9647C68.1927 9.44076 68.09 9.99093 68.09 10.6129H68.29ZM68.5844 9.04492C68.7786 8.6015 69.071 8.25869 69.4624 8.01341L69.3562 7.84394C68.9293 8.11149 68.6107 8.48611 68.4012 8.9647L68.5844 9.04492ZM69.4622 8.01357C69.8544 7.76941 70.3504 7.64404 70.956 7.64404V7.44404C70.3232 7.44404 69.7881 7.5751 69.3565 7.84378L69.4622 8.01357ZM70.956 7.64404C71.5337 7.64404 72.012 7.76774 72.3963 8.00925L72.5028 7.83991C72.0796 7.57404 71.5623 7.44404 70.956 7.44404V7.64404ZM72.3966 8.00941C72.7853 8.25202 73.0793 8.59366 73.279 9.03764L73.4614 8.95562C73.2464 8.47758 72.9267 8.10452 72.5025 7.83975L72.3966 8.00941ZM73.2793 9.0383C73.4821 9.48077 73.5853 10.0074 73.5853 10.6211H73.7853C73.7853 9.98536 73.6784 9.42906 73.4611 8.95497L73.2793 9.0383ZM68.8224 10.6211C68.8224 11.1376 68.896 11.5897 69.0461 11.9749L69.2325 11.9023C69.0934 11.5456 69.0224 11.1193 69.0224 10.6211H68.8224ZM69.0461 11.9749C69.1972 12.3627 69.4301 12.6662 69.746 12.8806L69.8583 12.7152C69.5795 12.5259 69.3705 12.2566 69.2325 11.9023L69.0461 11.9749ZM69.7463 12.8809C70.0669 13.0965 70.4683 13.2007 70.9438 13.2007V13.0007C70.4972 13.0007 70.1375 12.903 69.858 12.7149L69.7463 12.8809ZM70.9438 13.2007C71.4217 13.2007 71.8222 13.0966 72.1378 12.8804L72.0248 12.7154C71.7511 12.9029 71.3933 13.0007 70.9438 13.0007V13.2007ZM72.1375 12.8806C72.4535 12.6661 72.6851 12.3623 72.8335 11.9743L72.6467 11.9029C72.5113 12.2569 72.3038 12.526 72.0251 12.7152L72.1375 12.8806ZM72.8335 11.9743C72.9807 11.5893 73.0528 11.1374 73.0528 10.6211H72.8528C72.8528 11.1195 72.7831 11.546 72.6467 11.9029L72.8335 11.9743ZM73.0528 10.6211C73.0528 9.83638 72.888 9.20958 72.546 8.75258L72.3859 8.87242C72.6931 9.28288 72.8528 9.86179 72.8528 10.6211H73.0528ZM72.5464 8.75315C72.2008 8.2845 71.6633 8.05781 70.956 8.05781V8.25781C71.6182 8.25781 72.0873 8.46758 72.3854 8.87185L72.5464 8.75315ZM70.956 8.05781C70.4782 8.05781 70.0756 8.16045 69.755 8.37319L69.8656 8.53983C70.1452 8.35431 70.5064 8.25781 70.956 8.25781V8.05781ZM69.755 8.37319C69.4364 8.58468 69.2005 8.88535 69.0464 9.27047L69.2321 9.34475C69.3727 8.99334 69.5842 8.72661 69.8656 8.53983L69.755 8.37319ZM69.0463 9.27083C68.8959 9.65098 68.8224 10.1019 68.8224 10.6211H69.0224C69.0224 10.12 69.0935 9.6953 69.2323 9.34439L69.0463 9.27083ZM79.6961 13.6204V13.7204H79.7961V13.6204H79.6961ZM78.8941 13.6204L78.8102 13.6748L78.8398 13.7204H78.8941V13.6204ZM75.633 8.59563L75.7169 8.54119L75.6873 8.49563H75.633V8.59563ZM75.6002 8.59563V8.49563H75.4939L75.5004 8.60175L75.6002 8.59563ZM75.6289 9.05392L75.5291 9.06025L75.5291 9.06035L75.6289 9.05392ZM75.6534 9.59812L75.5535 9.60094L75.5535 9.60241L75.6534 9.59812ZM75.6657 13.6204V13.7204H75.7657V13.6204H75.6657ZM75.0192 13.6204H74.9192V13.7204H75.0192V13.6204ZM75.0192 7.63815V7.53815H74.9192V7.63815H75.0192ZM75.8171 7.63815L75.901 7.58373L75.8714 7.53815H75.8171V7.63815ZM79.066 12.6465L78.9821 12.7009L79.0117 12.7465H79.066V12.6465ZM79.0946 12.6465V12.7465H79.2005L79.1945 12.6408L79.0946 12.6465ZM79.0742 12.2414L78.9743 12.246L78.9743 12.2461L79.0742 12.2414ZM79.0496 11.6727L78.9496 11.6753L78.9497 11.6767L79.0496 11.6727ZM79.0414 7.63815V7.53815H78.9414V7.63815H79.0414ZM79.6961 7.63815H79.7961V7.53815H79.6961V7.63815ZM79.6961 13.5204H78.8941V13.7204H79.6961V13.5204ZM78.978 13.5659L75.7169 8.54119L75.5491 8.65008L78.8102 13.6748L78.978 13.5659ZM75.633 8.49563H75.6002V8.69563H75.633V8.49563ZM75.5004 8.60175C75.5086 8.7355 75.5182 8.88834 75.5291 9.06025L75.7287 9.04758C75.7178 8.87578 75.7082 8.7231 75.7 8.58952L75.5004 8.60175ZM75.5291 9.06035C75.5399 9.22812 75.548 9.4083 75.5535 9.60094L75.7534 9.59531C75.7479 9.40059 75.7397 9.21797 75.7287 9.04748L75.5291 9.06035ZM75.5535 9.60241C75.5616 9.79187 75.5657 9.98549 75.5657 10.1833H75.7657C75.7657 9.98275 75.7616 9.78628 75.7533 9.59384L75.5535 9.60241ZM75.5657 10.1833V13.6204H75.7657V10.1833H75.5657ZM75.6657 13.5204H75.0192V13.7204H75.6657V13.5204ZM75.1192 13.6204V7.63815H74.9192V13.6204H75.1192ZM75.0192 7.73815H75.8171V7.53815H75.0192V7.73815ZM75.7332 7.69258L78.9821 12.7009L79.1499 12.5921L75.901 7.58373L75.7332 7.69258ZM79.066 12.7465H79.0946V12.5465H79.066V12.7465ZM79.1945 12.6408C79.189 12.5458 79.1822 12.4112 79.1741 12.2367L78.9743 12.2461C78.9825 12.4208 78.9893 12.5562 78.9948 12.6522L79.1945 12.6408ZM79.1741 12.2368C79.1659 12.0597 79.1577 11.8703 79.1495 11.6686L78.9497 11.6767C78.9579 11.8787 78.9661 12.0685 78.9743 12.246L79.1741 12.2368ZM79.1496 11.67C79.1441 11.4662 79.1414 11.2775 79.1414 11.1039H78.9414C78.9414 11.2795 78.9442 11.47 78.9497 11.6753L79.1496 11.67ZM79.1414 11.1039V7.63815H78.9414V11.1039H79.1414ZM79.0414 7.73815H79.6961V7.53815H79.0414V7.73815ZM79.5961 7.63815V13.6204H79.7961V7.63815H79.5961Z" fill="white"/>
<path d="M68.1401 21.7502C67.2976 21.7521 66.4745 22.0039 65.7751 22.4737C65.0756 22.9434 64.5312 23.61 64.2106 24.3892C63.89 25.1683 63.8076 26.0251 63.9739 26.851C64.1402 27.677 64.5477 28.4351 65.1449 29.0295C65.7421 29.6239 66.5021 30.0278 67.3288 30.1902C68.1556 30.3527 69.0119 30.2663 69.7896 29.942C70.5672 29.6178 71.2313 29.0702 71.6977 28.3686C72.1642 27.6669 72.4121 26.8427 72.4101 26.0002C72.4183 25.4381 72.3132 24.8801 72.1013 24.3595C71.8893 23.8389 71.5748 23.3662 71.1764 22.9697C70.7779 22.5731 70.3038 22.2608 69.7822 22.0513C69.2606 21.8418 68.7021 21.7394 68.1401 21.7502ZM68.1401 28.5802C67.6237 28.6163 67.1083 28.4962 66.6611 28.2356C66.2138 27.9749 65.8553 27.5857 65.6321 27.1186C65.409 26.6515 65.3315 26.128 65.4098 25.6163C65.4881 25.1046 65.7185 24.6282 66.0711 24.2492C66.4237 23.8702 66.8821 23.606 67.3869 23.4909C67.8916 23.3759 68.4193 23.4154 68.9013 23.6043C69.3833 23.7931 69.7973 24.1226 70.0896 24.5499C70.3819 24.9772 70.5388 25.4825 70.5401 26.0002C70.5562 26.3282 70.5065 26.6561 70.3938 26.9646C70.2812 27.2731 70.1079 27.5559 69.8842 27.7963C69.6606 28.0368 69.391 28.23 69.0914 28.3647C68.7919 28.4993 68.4684 28.5726 68.1401 28.5802ZM58.8201 21.7502C57.9776 21.7521 57.1545 22.0039 56.4551 22.4737C55.7556 22.9434 55.2112 23.61 54.8906 24.3892C54.57 25.1683 54.4876 26.0251 54.6539 26.851C54.8202 27.677 55.2277 28.4351 55.8249 29.0295C56.4221 29.6239 57.1821 30.0278 58.0088 30.1902C58.8356 30.3527 59.6919 30.2663 60.4696 29.942C61.2472 29.6178 61.9113 29.0702 62.3777 28.3686C62.8442 27.6669 63.0921 26.8427 63.0901 26.0002C63.0982 25.4381 62.9932 24.8801 62.7813 24.3595C62.5693 23.8389 62.2548 23.3662 61.8564 22.9697C61.4579 22.5731 60.9838 22.2608 60.4622 22.0513C59.9406 21.8418 59.3821 21.7394 58.8201 21.7502ZM58.8201 28.5802C58.3037 28.6163 57.7883 28.4962 57.3411 28.2356C56.8938 27.9749 56.5353 27.5857 56.3121 27.1186C56.089 26.6515 56.0115 26.128 56.0898 25.6163C56.1681 25.1046 56.3985 24.6282 56.7511 24.2492C57.1037 23.8702 57.5621 23.606 58.0669 23.4909C58.5716 23.3759 59.0993 23.4154 59.5813 23.6043C60.0633 23.7931 60.4773 24.1226 60.7696 24.5499C61.0619 24.9772 61.2188 25.4825 61.2201 26.0002C61.2362 26.3282 61.1865 26.6561 61.0738 26.9646C60.9612 27.2731 60.7879 27.5559 60.5642 27.7963C60.3406 28.0368 60.071 28.23 59.7714 28.3647C59.4719 28.4993 59.1484 28.5726 58.8201 28.5802ZM47.7401 23.0602V24.8602H52.0601C51.9924 25.708 51.6399 26.508 51.0601 27.1302C50.6268 27.5717 50.1056 27.9173 49.5302 28.1447C48.9549 28.3721 48.3382 28.4761 47.7201 28.4502C46.4471 28.4502 45.2262 27.9445 44.326 27.0443C43.4258 26.1441 42.9201 24.9232 42.9201 23.6502C42.9201 22.3771 43.4258 21.1562 44.326 20.2561C45.2262 19.3559 46.4471 18.8502 47.7201 18.8502C48.9405 18.832 50.119 19.2955 51.0001 20.1402L52.2701 18.8702C51.6741 18.2807 50.9664 17.8161 50.1886 17.5035C49.4107 17.191 48.5783 17.0369 47.7401 17.0502C46.8511 17.0156 45.9643 17.1608 45.1327 17.4771C44.3012 17.7935 43.5421 18.2744 42.9009 18.8912C42.2596 19.5079 41.7495 20.2478 41.4011 21.0664C41.0527 21.885 40.873 22.7655 40.873 23.6552C40.873 24.5448 41.0527 25.4254 41.4011 26.244C41.7495 27.0626 42.2596 27.8024 42.9009 28.4192C43.5421 29.0359 44.3012 29.5169 45.1327 29.8332C45.9643 30.1495 46.8511 30.2948 47.7401 30.2602C48.5955 30.2943 49.4485 30.1472 50.243 29.8283C51.0375 29.5095 51.7556 29.0262 52.3501 28.4102C53.4002 27.2566 53.9598 25.7394 53.9101 24.1802C53.9137 23.8049 53.8836 23.4301 53.8201 23.0602H47.7401ZM93.0501 24.4602C92.7893 23.6929 92.3016 23.023 91.6516 22.539C91.0016 22.0551 90.2199 21.78 89.4101 21.7502C88.8631 21.7491 88.3217 21.8602 87.8193 22.0767C87.317 22.2932 86.8644 22.6104 86.4895 23.0087C86.1146 23.407 85.8254 23.878 85.6397 24.3926C85.4541 24.9071 85.3759 25.4542 85.4101 26.0002C85.4016 26.913 85.6885 27.8041 86.2282 28.5404C86.7679 29.2767 87.5313 29.8187 88.4044 30.0853C89.2774 30.352 90.2134 30.329 91.0723 30.0199C91.9313 29.7107 92.6672 29.132 93.1701 28.3702L91.7201 27.3702C91.5039 27.7304 91.1974 28.028 90.8307 28.2332C90.4641 28.4384 90.0502 28.5442 89.6301 28.5402C89.1967 28.5581 88.768 28.4444 88.4003 28.2142C88.0327 27.984 87.7432 27.6479 87.5701 27.2502L93.2601 24.9002L93.0501 24.4602ZM87.2501 25.8802C87.2298 25.5695 87.2717 25.258 87.3734 24.9638C87.475 24.6696 87.6343 24.3986 87.842 24.1667C88.0497 23.9348 88.3015 23.7467 88.5828 23.6134C88.8641 23.48 89.1691 23.4041 89.4801 23.3902C89.8023 23.3705 90.1231 23.4464 90.4024 23.6082C90.6817 23.7701 90.907 24.0108 91.0501 24.3002L87.2501 25.8802ZM82.6301 30.0002H84.5001V17.5002H82.6301V30.0002ZM79.5701 22.7002H79.5001C79.2207 22.382 78.876 22.128 78.4894 21.9554C78.1028 21.7828 77.6835 21.6957 77.2601 21.7002C76.1673 21.7532 75.1367 22.2246 74.3821 23.0167C73.6274 23.8089 73.2064 24.8611 73.2064 25.9552C73.2064 27.0493 73.6274 28.1014 74.3821 28.8936C75.1367 29.6857 76.1673 30.1572 77.2601 30.2102C77.6841 30.2187 78.1047 30.1334 78.4919 29.9606C78.8791 29.7877 79.2234 29.5315 79.5001 29.2102H79.5701V29.8202C79.5701 31.4502 78.7001 32.3202 77.3001 32.3202C76.8324 32.3099 76.3783 32.1609 75.9955 31.892C75.6127 31.6232 75.3185 31.2466 75.1501 30.8102L73.5301 31.4802C73.8296 32.2324 74.3504 32.8761 75.0235 33.326C75.6966 33.776 76.4905 34.011 77.3001 34.0002C79.4901 34.0002 81.3001 32.7102 81.3001 29.5702V22.0002H79.5701V22.7002ZM77.4201 28.5802C76.7649 28.5393 76.1499 28.2502 75.7004 27.7718C75.2509 27.2934 75.0006 26.6616 75.0006 26.0052C75.0006 25.3487 75.2509 24.7169 75.7004 24.2385C76.1499 23.7601 76.7649 23.471 77.4201 23.4302C77.7403 23.444 78.0545 23.5221 78.344 23.6598C78.6334 23.7975 78.8922 23.9921 79.1049 24.2318C79.3176 24.4716 79.4799 24.7517 79.5822 25.0555C79.6844 25.3593 79.7245 25.6806 79.7001 26.0002C79.7274 26.3209 79.6893 26.6438 79.5883 26.9493C79.4872 27.2549 79.3252 27.5368 79.1121 27.778C78.8989 28.0191 78.6391 28.2146 78.3483 28.3525C78.0575 28.4903 77.7417 28.5678 77.4201 28.5802ZM101.81 17.5002H97.3301V30.0002H99.2001V25.2602H101.81C102.343 25.2985 102.878 25.2265 103.382 25.0489C103.886 24.8713 104.348 24.5917 104.739 24.2277C105.13 23.8636 105.442 23.4229 105.655 22.933C105.869 22.4431 105.979 21.9145 105.979 21.3802C105.979 20.8458 105.869 20.3172 105.655 19.8273C105.442 19.3374 105.13 18.8967 104.739 18.5327C104.348 18.1686 103.886 17.8891 103.382 17.7114C102.878 17.5338 102.343 17.4619 101.81 17.5002ZM101.81 23.5002H99.2001V19.2402H101.85C102.131 19.2402 102.409 19.2955 102.669 19.4031C102.929 19.5106 103.165 19.6682 103.363 19.867C103.562 20.0657 103.72 20.3016 103.827 20.5612C103.935 20.8209 103.99 21.0991 103.99 21.3802C103.99 21.6612 103.935 21.9395 103.827 22.1991C103.72 22.4587 103.562 22.6947 103.363 22.8934C103.165 23.0921 102.929 23.2497 102.669 23.3573C102.409 23.4648 102.131 23.5202 101.85 23.5202L101.81 23.5002ZM113.35 21.7102C112.669 21.6682 111.991 21.8267 111.399 22.1662C110.807 22.5056 110.328 23.0111 110.02 23.6202L111.67 24.3102C111.837 24.0096 112.087 23.7637 112.39 23.6022C112.694 23.4407 113.038 23.3705 113.38 23.4002C113.617 23.3724 113.858 23.3923 114.088 23.4585C114.317 23.5247 114.531 23.636 114.718 23.7859C114.904 23.9357 115.058 24.1212 115.172 24.3314C115.286 24.5416 115.356 24.7723 115.38 25.0102V25.1302C114.779 24.8141 114.109 24.6493 113.43 24.6502C111.65 24.6502 109.83 25.6502 109.83 27.4702C109.848 27.857 109.943 28.2364 110.11 28.5857C110.277 28.9351 110.513 29.2473 110.803 29.5038C111.093 29.7603 111.432 29.9559 111.799 30.079C112.166 30.202 112.554 30.25 112.94 30.2202C113.409 30.2461 113.877 30.1468 114.295 29.9324C114.714 29.718 115.067 29.3963 115.32 29.0002H115.38V30.0002H117.18V25.1902C117.18 23.0002 115.52 21.7302 113.39 21.7302L113.35 21.7102ZM113.12 28.5602C112.51 28.5602 111.66 28.2502 111.66 27.5002C111.66 26.5002 112.72 26.1602 113.66 26.1602C114.254 26.1455 114.841 26.2906 115.36 26.5802C115.297 27.1232 115.04 27.6251 114.635 27.9929C114.231 28.3606 113.707 28.5693 113.16 28.5802L113.12 28.5602ZM123.74 22.0002L121.6 27.4202H121.54L119.32 22.0002H117.32L120.65 29.5802L118.75 33.7902H120.7L125.82 22.0002H123.74ZM106.94 30.0002H108.8V17.5002H106.94V30.0002Z" fill="white"/>
<path d="M20.7198 19.4202L10.0698 30.7202C10.1862 31.1476 10.3992 31.5425 10.6925 31.8745C10.9857 32.2064 11.3514 32.4666 11.7612 32.6347C12.1709 32.8029 12.6139 32.8746 13.0558 32.8443C13.4977 32.8141 13.9268 32.6826 14.3098 32.4602L26.3098 25.5402L20.7198 19.4202Z" fill="#EA4335"/>
<path d="M31.49 17.5002L26.31 14.5002L20.49 19.6902L26.33 25.5402L31.48 22.5402C31.9378 22.2951 32.3205 21.9303 32.5873 21.4847C32.8541 21.0392 32.995 20.5296 32.995 20.0102C32.995 19.4909 32.8541 18.9813 32.5873 18.5358C32.3205 18.0902 31.9378 17.7254 31.48 17.4802L31.49 17.5002Z" fill="#FBBC04"/>
<path d="M10.07 9.28052C10.0172 9.51672 9.99366 9.75855 10 10.0005V30.0005C10.0018 30.2504 10.0354 30.4991 10.1 30.7405L21.1 19.7405L10.07 9.28052Z" fill="#4285F4"/>
<path d="M20.8 19.9999L26.31 14.4899L14.31 7.54989C13.8592 7.28189 13.3445 7.14027 12.82 7.13989C12.1874 7.14171 11.5728 7.35106 11.0706 7.73583C10.5685 8.1206 10.2064 8.65952 10.04 9.26989L20.8 19.9999Z" fill="#34A853"/>
</svg>
